<?xml version="1.0" encoding="UTF-8"?>
<svg id="Layer_2" xmlns="http://www.w3.org/2000/svg" viewBox="0 0 1024 606">
  <defs>
    <style>
      .cls-1 {
        fill: none;
      }

      .cls-2 {
        fill: #213aa5;
      }
    </style>
  </defs>
  <g id="Layer_1-2" data-name="Layer_1">
    <g>
      <polygon class="cls-2" points="206.23 373.54 206.23 432.52 195.03 432.52 165.04 396.03 164.95 396.03 164.95 432.52 151.95 432.52 151.95 373.54 163.06 373.54 193.13 410.12 193.22 410.12 193.22 373.54 206.23 373.54"/>
      <polygon class="cls-2" points="283.04 407.32 261.27 407.32 261.27 421.41 299.56 421.41 299.56 432.52 248.35 432.52 248.35 373.54 297.49 373.54 297.49 384.74 261.27 384.74 261.27 396.21 283.04 396.21 283.04 407.32"/>
      <polygon class="cls-2" points="329.14 373.54 384.78 373.54 384.78 384.74 363.46 384.74 363.46 432.52 350.55 432.52 350.55 384.74 329.14 384.74 329.14 373.54"/>
      <polygon class="cls-2" points="427.36 373.54 438.65 412.29 439.19 412.29 451.29 373.54 460.78 373.54 472.79 412.29 473.33 412.29 484.71 373.54 498.26 373.54 479.38 432.52 467.1 432.52 455.99 397.48 455.45 397.48 444.43 432.52 432.15 432.52 413.27 373.54 427.36 373.54"/>
      <path class="cls-2" d="M561.24,371.73c18.69,0,33.69,14,33.69,31.16s-14.99,31.43-33.69,31.43-33.33-13.91-33.33-31.43,14.63-31.16,33.33-31.16M561.24,423.22c11.29,0,20.14-9.21,20.14-20.32s-8.85-19.96-20.14-19.96-19.78,9.03-19.78,19.96,8.67,20.32,19.78,20.32"/>
      <path class="cls-2" d="M631.9,432.52v-58.98h32.7c8.4,0,13.91,2.44,17.7,6.41,3.07,3.25,4.88,7.5,4.88,12.19,0,7.58-4.7,13.46-11.92,16.62l13.82,23.75h-14.81l-11.92-21.68h-17.52v21.68h-12.91ZM644.82,384.47v15.45h21.13c4.51,0,8.22-3.25,8.22-7.77,0-1.99-.72-3.79-2.08-5.15-2.08-2.26-4.7-2.53-7.05-2.53h-20.23Z"/>
      <polygon class="cls-2" points="738.88 399.19 765.88 373.54 782.14 373.54 757.58 396.57 786.57 432.52 770.22 432.52 748.36 405.06 738.88 414 738.88 432.52 725.87 432.52 725.87 373.54 738.88 373.54 738.88 399.19"/>
      <path class="cls-2" d="M860.85,388.72c-3.52-2.62-10.93-6.33-20.68-6.33-5.87,0-11.11,2.17-11.11,7.23s7.77,5.6,15.45,6.23c10.75.72,27.55,1.99,27.55,18.24,0,14.54-12.1,20.23-26.55,20.23-15.27,0-25.56-6.05-32.42-11.65l7.31-8.85c4.97,3.97,13.37,9.93,25.29,9.93,7.5,0,13.46-2.89,13.46-8.4s-6.05-6.95-14.9-7.68c-12.91-.81-28.09-2.26-28.09-17.25s13.28-18.7,24.39-18.7c12.28,0,22.67,4.52,27.73,7.95l-7.41,9.03Z"/>
      <polygon class="cls-2" points="541.29 347.03 541.29 173.48 680.82 173.48 680.82 200.06 571.05 200.06 571.05 243.11 637.76 243.11 637.76 269.69 571.05 269.69 571.05 347.03 541.29 347.03"/>
      <rect class="cls-2" x="696.88" y="160.99" width="27.37" height="186.04"/>
      <path class="cls-2" d="M815.89,214.41c40.93,0,68.57,30.3,68.57,68.04s-27.64,68.57-68.57,68.57-68.04-30.03-68.04-68.57,27.37-68.04,68.04-68.04M815.89,328.16c25.51,0,40.4-21,40.4-45.71s-14.88-45.18-40.4-45.18-39.6,21.26-39.6,45.18,14.62,45.71,39.6,45.71M850.71,193.68h-69.37v-21.26h69.37v21.26Z"/>
      <path class="cls-2" d="M264.84,341.16c-10.91,4.72-22.95,7.34-35.6,7.34-49.55,0-89.71-40.16-89.71-89.71,0-12.65,2.62-24.68,7.34-35.6l75.86,75.86,25.25,25.25,16.86,16.86Z"/>
      <path class="cls-2" d="M291.7,194.39l146.99,146.99c-10.77,4.58-22.63,7.12-35.07,7.12-23.7,0-45.25-9.19-61.28-24.2-.38-.35-.75-.71-1.13-1.07l-147.03-147.03c10.77-4.58,22.63-7.12,35.07-7.12h.09c.16,0,.33,0,.49,0,20.9.13,40.11,7.41,55.29,19.52,2.29,1.82,4.48,3.75,6.58,5.79"/>
      <path class="cls-2" d="M493.32,258.79c0,12.65-2.62,24.68-7.34,35.6l-117.97-117.96c10.91-4.72,22.95-7.34,35.6-7.34,49.55,0,89.71,40.16,89.71,89.71"/>
      <rect class="cls-1" width="1024" height="606"/>
    </g>
  </g>
</svg>