<?xml version="1.0" encoding="UTF-8"?>
<svg id="Layer_2" xmlns="http://www.w3.org/2000/svg" viewBox="0 0 729 606">
  <defs>
    <style>
      .cls-1 {
        fill: none;
      }

      .cls-2 {
        fill: #183baa;
      }
    </style>
  </defs>
  <g id="Layer_1-2" data-name="Layer_1">
    <g>
      <path class="cls-2" d="M305.15,397.75c-12.55,5.43-26.4,8.45-40.95,8.45-57,0-103.2-46.2-103.2-103.2,0-14.55,3.01-28.39,8.45-40.95l87.27,87.27,29.04,29.04,19.39,19.39Z"/>
      <path class="cls-2" d="M336.05,228.92l169.1,169.1c-12.39,5.27-26.03,8.19-40.35,8.19-27.26,0-52.05-10.57-70.5-27.84-.44-.4-.87-.82-1.3-1.23l-169.14-169.14c12.39-5.27,26.03-8.19,40.35-8.19h.11c.19,0,.38,0,.56,0,24.04.15,46.14,8.53,63.61,22.46,2.63,2.1,5.16,4.32,7.57,6.66"/>
      <path class="cls-2" d="M568,303c0,14.55-3.01,28.39-8.45,40.95l-135.7-135.71c12.55-5.43,26.4-8.44,40.95-8.44,57,0,103.2,46.2,103.2,103.2"/>
      <rect class="cls-1" width="729" height="606"/>
    </g>
  </g>
</svg>